<svg width="495" height="494" viewBox="0 0 495 494" fill="none" xmlns="http://www.w3.org/2000/svg">
<path d="M248 0.948975C110.98 0.948975 0.899994 111.959 0.899994 246.999C0.899994 382.039 110.99 493.049 248 493.049C385.01 493.049 494.93 382.039 494.93 246.999C494.93 111.959 385.02 0.948975 248 0.948975V0.948975ZM248 22.476C370.78 22.476 471.65 122.249 471.65 246.996C471.65 371.743 370.78 471.516 248 471.516C125.22 471.516 24.7 371.743 24.7 246.996C24.7 122.249 125.22 22.476 248 22.476V22.476ZM152.449 235.796C149.48 235.933 146.683 237.249 144.683 239.444C142.679 241.644 141.633 244.55 141.773 247.519C141.91 250.491 143.226 253.284 145.426 255.288C147.625 257.288 150.527 258.335 153.5 258.194H342.5C345.496 258.237 348.386 257.077 350.523 254.972C352.656 252.866 353.859 249.995 353.859 246.995C353.859 243.995 352.656 241.124 350.523 239.018C348.386 236.913 345.496 235.753 342.5 235.796H153.5C153.148 235.78 152.8 235.78 152.449 235.796L152.449 235.796Z" fill="#A2ABBD"/>
</svg>
