<svg width="495" height="494" viewBox="0 0 495 494" fill="none" xmlns="http://www.w3.org/2000/svg">
<path d="M254.762 143.923C256.958 145.923 258.274 148.72 258.411 151.688C258.426 152.04 258.427 152.387 258.411 152.739V247.239V341.739C258.454 344.735 257.294 347.626 255.188 349.762C253.083 351.895 250.212 353.098 247.212 353.098C244.212 353.098 241.341 351.895 239.235 349.762C237.13 347.626 235.97 344.735 236.013 341.739V152.739C235.872 149.766 236.919 146.864 238.919 144.665C240.923 142.466 243.716 141.149 246.688 141.013C249.657 140.872 252.563 141.919 254.762 143.923Z" fill="#A2ABBD"/>
<path d="M247.1 0.948975C110.08 0.948975 0 111.959 0 246.999C0 382.039 110.09 493.049 247.1 493.049C384.11 493.049 494.03 382.039 494.03 246.999C494.03 111.959 384.12 0.948975 247.1 0.948975ZM247.1 22.476C369.88 22.476 470.75 122.249 470.75 246.996C470.75 371.743 369.88 471.516 247.1 471.516C124.32 471.516 23.8 371.743 23.8 246.996C23.8 122.249 124.32 22.476 247.1 22.476ZM151.549 235.796C148.58 235.933 145.783 237.249 143.783 239.444C141.779 241.644 140.733 244.55 140.873 247.519C141.01 250.491 142.326 253.284 144.526 255.288C146.725 257.288 149.627 258.335 152.6 258.194H341.6C344.596 258.237 347.486 257.077 349.623 254.972C351.756 252.866 352.959 249.995 352.959 246.995C352.959 243.995 351.756 241.124 349.623 239.018C347.486 236.913 344.596 235.753 341.6 235.796H247.1H152.6C152.248 235.78 151.901 235.78 151.549 235.796Z" fill="#A2ABBD"/>
</svg>
