<svg width="497" height="550" viewBox="0 0 497 550" fill="none" xmlns="http://www.w3.org/2000/svg">
<path d="M269.5 21C269.5 9.402 260.098 0 248.5 0C236.902 0 227.5 9.4023 227.5 21V245C227.5 256.598 236.902 266 248.5 266C260.098 266 269.5 256.598 269.5 245V21Z" fill="white"/>
<path d="M43.77 327.95C37.2309 278.282 48.9731 227.93 76.805 186.27C104.641 144.614 146.664 114.497 195.055 101.532C206.254 98.5281 212.903 87.012 209.903 75.813C206.903 64.61 195.387 57.961 184.184 60.961C125.95 76.566 75.374 112.809 41.884 162.931C8.39196 213.06 -5.73704 273.651 2.12996 333.421C10.0011 393.194 39.329 448.071 84.657 487.811C129.985 527.565 188.217 549.479 248.507 549.479C308.792 549.479 367.027 527.565 412.347 487.811C457.675 448.065 487.003 393.19 494.874 333.421C502.741 273.651 488.612 213.061 455.12 162.931C421.628 112.806 371.05 76.564 312.82 60.961C301.617 57.961 290.105 64.6094 287.101 75.813C284.101 87.012 290.749 98.528 301.953 101.532C350.344 114.497 392.367 144.614 420.203 186.27C448.035 227.922 459.777 278.278 453.238 327.95C446.699 377.618 422.328 423.216 384.66 456.25C346.996 489.281 298.605 507.492 248.51 507.492C198.415 507.492 150.022 489.281 112.35 456.25C74.686 423.215 50.311 377.617 43.772 327.95H43.77Z" fill="white"/>
</svg>
